<svg width="43" height="43" viewBox="0 0 43 43" fill="none" xmlns="http://www.w3.org/2000/svg">
<path d="M6.16531 23.7734H2.59109L1.78836 26H0.628202L3.88601 17.4688H4.87039L8.13406 26H6.97976L6.16531 23.7734ZM2.93094 22.8477H5.83133L4.3782 18.8574L2.93094 22.8477ZM10.2378 18.125V19.6602H11.4214V20.498H10.2378V24.4297C10.2378 24.6836 10.2905 24.875 10.396 25.0039C10.5015 25.1289 10.6812 25.1914 10.9351 25.1914C11.0601 25.1914 11.232 25.168 11.4507 25.1211V26C11.1655 26.0781 10.8882 26.1172 10.6187 26.1172C10.1343 26.1172 9.76906 25.9707 9.52297 25.6777C9.27687 25.3848 9.15383 24.9688 9.15383 24.4297V20.498H7.99953V19.6602H9.15383V18.125H10.2378ZM18.8982 23.293C18.7927 24.1953 18.4587 24.8926 17.8962 25.3848C17.3377 25.873 16.5935 26.1172 15.6638 26.1172C14.656 26.1172 13.8474 25.7559 13.238 25.0332C12.6326 24.3105 12.3298 23.3438 12.3298 22.1328V21.3125C12.3298 20.5195 12.4705 19.8223 12.7517 19.2207C13.0369 18.6191 13.4392 18.1582 13.9587 17.8379C14.4783 17.5137 15.0798 17.3516 15.7634 17.3516C16.6697 17.3516 17.3962 17.6055 17.9431 18.1133C18.49 18.6172 18.8084 19.3164 18.8982 20.2109H17.7673C17.6697 19.5312 17.4568 19.0391 17.1287 18.7344C16.8045 18.4297 16.3494 18.2773 15.7634 18.2773C15.0447 18.2773 14.4802 18.543 14.0701 19.0742C13.6638 19.6055 13.4607 20.3613 13.4607 21.3418V22.168C13.4607 23.0938 13.6541 23.8301 14.0408 24.377C14.4275 24.9238 14.9685 25.1973 15.6638 25.1973C16.2888 25.1973 16.7673 25.0566 17.0994 24.7754C17.4353 24.4902 17.658 23.9961 17.7673 23.293H18.8982ZM19.7422 22.7715C19.7422 22.1504 19.8633 21.5918 20.1055 21.0957C20.3516 20.5996 20.6914 20.2168 21.125 19.9473C21.5625 19.6777 22.0605 19.543 22.6191 19.543C23.4824 19.543 24.1797 19.8418 24.7109 20.4395C25.2461 21.0371 25.5137 21.832 25.5137 22.8242V22.9004C25.5137 23.5176 25.3945 24.0723 25.1562 24.5645C24.9219 25.0527 24.584 25.4336 24.1426 25.707C23.7051 25.9805 23.2012 26.1172 22.6309 26.1172C21.7715 26.1172 21.0742 25.8184 20.5391 25.2207C20.0078 24.623 19.7422 23.832 19.7422 22.8477V22.7715ZM20.832 22.9004C20.832 23.6035 20.9941 24.168 21.3184 24.5938C21.6465 25.0195 22.084 25.2324 22.6309 25.2324C23.1816 25.2324 23.6191 25.0176 23.9434 24.5879C24.2676 24.1543 24.4297 23.5488 24.4297 22.7715C24.4297 22.0762 24.2637 21.5137 23.9316 21.084C23.6035 20.6504 23.166 20.4336 22.6191 20.4336C22.084 20.4336 21.6523 20.6465 21.3242 21.0723C20.9961 21.498 20.832 22.1074 20.832 22.9004ZM26.3694 22.7773C26.3694 21.8047 26.5998 21.0234 27.0608 20.4336C27.5217 19.8398 28.1252 19.543 28.8713 19.543C29.6135 19.543 30.2014 19.7969 30.635 20.3047V17H31.719V26H30.7229L30.6702 25.3203C30.2366 25.8516 29.633 26.1172 28.8596 26.1172C28.1252 26.1172 27.5256 25.8164 27.0608 25.2148C26.5998 24.6133 26.3694 23.8281 26.3694 22.8594V22.7773ZM27.4534 22.9004C27.4534 23.6191 27.6018 24.1816 27.8987 24.5879C28.1955 24.9941 28.6057 25.1973 29.1291 25.1973C29.8166 25.1973 30.3186 24.8887 30.635 24.2715V21.3594C30.3108 20.7617 29.8127 20.4629 29.1409 20.4629C28.6096 20.4629 28.1955 20.668 27.8987 21.0781C27.6018 21.4883 27.4534 22.0957 27.4534 22.9004ZM35.7973 26.1172C34.938 26.1172 34.2387 25.8359 33.6997 25.2734C33.1606 24.707 32.8911 23.9512 32.8911 23.0059V22.8066C32.8911 22.1777 33.0102 21.6172 33.2485 21.125C33.4907 20.6289 33.8266 20.2422 34.2563 19.9648C34.6899 19.6836 35.1587 19.543 35.6626 19.543C36.4868 19.543 37.1274 19.8145 37.5844 20.3574C38.0415 20.9004 38.27 21.6777 38.27 22.6895V23.1406H33.9751C33.9907 23.7656 34.1723 24.2715 34.52 24.6582C34.8716 25.041 35.3169 25.2324 35.8559 25.2324C36.2387 25.2324 36.563 25.1543 36.8286 24.998C37.0942 24.8418 37.3266 24.6348 37.5259 24.377L38.188 24.8926C37.6567 25.709 36.8598 26.1172 35.7973 26.1172ZM35.6626 20.4336C35.2251 20.4336 34.8579 20.5938 34.561 20.9141C34.2641 21.2305 34.0805 21.6758 34.0102 22.25H37.186V22.168C37.1548 21.6172 37.0063 21.1914 36.7407 20.8906C36.4751 20.5859 36.1157 20.4336 35.6626 20.4336ZM42.3542 20.6328C42.1902 20.6055 42.0124 20.5918 41.821 20.5918C41.1101 20.5918 40.6277 20.8945 40.3737 21.5V26H39.2898V19.6602H40.3445L40.362 20.3926C40.7175 19.8262 41.2214 19.543 41.8737 19.543C42.0847 19.543 42.2448 19.5703 42.3542 19.625V20.6328Z" fill="black"/>
</svg>
