<?xml version="1.0" encoding="UTF-8"?>
<svg xmlns="http://www.w3.org/2000/svg" version="1.1" viewBox="0 0 1698 324">
  <defs>
    <style>
      .cls-1 {
        fill-rule: evenodd;
      }

      .cls-1, .cls-2 {
        fill: #005bac;
      }
    </style>
  </defs>
  <!-- Generator: Adobe Illustrator 28.7.1, SVG Export Plug-In . SVG Version: 1.2.0 Build 142)  -->
  <g>
    <g id="_レイヤー_1" data-name="レイヤー_1">
      <path class="cls-1" d="M5.9,44.3C1.6,54,1.6,66.5,1.6,91.4s0,37.4,4.3,47.2c5,11.3,14,20.4,25.3,25.4,9.7,4.3,22.1,4.3,47,4.3s37.3,0,47-4.3c11.3-5,20.3-14.1,25.3-25.4,4.3-9.7,4.3-22.2,4.3-47.2s0-37.4-4.3-47.2c-5-11.3-14-20.4-25.3-25.4-9.7-4.3-22.1-4.3-47-4.3s-37.3,0-47,4.3c-11.3,5-20.3,14.1-25.3,25.4ZM51.3,137.8c6.1.4,14.1.5,27,.5s20.9,0,27-.5c5.8-.4,7.4-1.1,7.8-1.3,4.5-2,8.1-5.6,10.1-10.2.2-.4.8-2,1.3-7.8.4-6.1.5-14.2.5-27.1s0-21-.5-27.1c-.4-5.8-1.1-7.5-1.3-7.8-2-4.5-5.6-8.2-10.1-10.2-.4-.2-2-.8-7.8-1.3-6.1-.4-14.1-.5-27-.5s-20.9,0-27,.5c-5.8.4-7.4,1.1-7.8,1.3-4.5,2-8.1,5.6-10.1,10.2-.2.4-.8,2-1.3,7.8-.4,6.1-.5,14.2-.5,27.1s0,21,.5,27.1c.4,5.8,1.1,7.5,1.3,7.8,2,4.5,5.6,8.2,10.1,10.2.4.2,2,.8,7.8,1.3Z"/>
      <path class="cls-1" d="M159.2,198.2c-4.3,9.7-4.3,22.2-4.3,47.2s0,37.4,4.3,47.2c5,11.3,14,20.4,25.3,25.4,9.7,4.3,22.1,4.3,47,4.3s37.3,0,47-4.3c11.3-5,20.3-14.1,25.3-25.4,4.3-9.7,4.3-22.2,4.3-47.2s0-37.4-4.3-47.2c-5-11.3-14-20.4-25.3-25.4-9.7-4.3-22.1-4.3-47-4.3s-37.3,0-47,4.3c-11.3,5-20.3,14.1-25.3,25.4ZM204.5,291.7c6.1.4,14.1.5,27,.5s20.9,0,27-.5c5.8-.4,7.4-1.1,7.8-1.3,4.5-2,8.1-5.6,10.1-10.2.2-.4.8-2,1.3-7.8.4-6.1.5-14.2.5-27.1s0-21-.5-27.1c-.4-5.8-1.1-7.5-1.3-7.8-2-4.5-5.6-8.2-10.1-10.2-.4-.2-2-.8-7.8-1.3-6.1-.4-14.1-.5-27-.5s-20.9,0-27,.5c-5.8.4-7.4,1.1-7.8,1.3-4.5,2-8.1,5.6-10.1,10.2-.2.4-.8,2-1.3,7.8-.4,6.1-.5,14.2-.5,27.1s0,21,.5,27.1c.4,5.8,1.1,7.5,1.3,7.8,2,4.5,5.6,8.2,10.1,10.2.4.2,2,.8,7.8,1.3Z"/>
      <path class="cls-1" d="M156.8,93.2c3.1,9.6,11.3,17.8,27.8,34.4l11.1,11.1c16.5,16.6,24.7,24.8,34.2,28,8.4,2.7,17.4,2.7,25.7,0,9.5-3.1,17.8-11.4,34.2-28l3-3c16.5-16.6,24.7-24.8,27.8-34.4,2.7-8.4,2.7-17.5,0-25.9-3.1-9.6-11.3-17.8-27.8-34.4l-11.1-11.1c-16.5-16.6-24.7-24.8-34.2-28-8.4-2.7-17.4-2.7-25.7,0-9.5,3.1-17.8,11.4-34.2,28l-3,3c-16.5,16.6-24.7,24.8-27.8,34.4-2.7,8.4-2.7,17.5,0,25.9ZM185.2,76.8s0,0,0,0c0,0,0,0,0,0ZM185.2,83.8s0,0,0,0c0,0,0,0,0,0ZM239.3,138.1s0,0,0,0c0,0,0,0,0,0ZM246.2,138.1s0,0,0,0c0,0,0,0,0,0ZM292.2,91.9s0,0,0,0c0,0,0,0,0,0ZM292.2,84.9s0,0,0,0c0,0,0,0,0,0ZM238.1,30.6s0,0,0,0c0,0,0,0,0,0ZM231.2,30.6s0,0,0,0c0,0,0,0,0,0ZM208.8,51.3l-3,3c-8.6,8.6-13.7,13.8-17.3,18-2.4,2.8-3.1,4.1-3.2,4.4-.7,2.3-.7,4.8,0,7.1.1.3.9,1.6,3.2,4.4,3.5,4.2,8.7,9.4,17.3,18l11.1,11.1c8.6,8.6,13.8,13.8,17.9,17.4,2.8,2.4,4.1,3.1,4.4,3.3,2.3.7,4.8.7,7.1,0,.3-.1,1.6-.9,4.4-3.3,4.2-3.5,9.3-8.7,17.9-17.4l3-3c8.6-8.6,13.7-13.8,17.3-18,2.4-2.8,3.1-4.1,3.2-4.4.7-2.3.7-4.8,0-7.1-.1-.3-.9-1.6-3.2-4.4-3.5-4.2-8.7-9.4-17.3-18l-11.1-11.1c-8.6-8.6-13.8-13.8-17.9-17.4-2.8-2.4-4.1-3.1-4.4-3.3-2.3-.7-4.8-.7-7.1,0-.3.1-1.6.9-4.4,3.3-4.2,3.5-9.3,8.7-17.9,17.4Z"/>
      <path class="cls-1" d="M77.4,168.4C34.7,168.4,0,203.2,0,246.2s34.7,77.8,77.4,77.8,77.4-34.8,77.4-77.8-34.7-77.8-77.4-77.8ZM30,246.2c0,26.3,21.3,47.7,47.5,47.7s47.5-21.4,47.5-47.7-21.3-47.7-47.5-47.7-47.5,21.4-47.5,47.7Z"/>
      <path class="cls-2" d="M1659.3,227.8v-54.2c0-12.9-5.2-19.4-15.5-19.4s-15.5,6.5-15.5,19.4v54.2c0,12.9,5.2,19.4,15.5,19.4s15.5-6.5,15.5-19.4ZM1663.1,266.6h-38.7c-23.2,0-34.9-12.9-34.9-38.7v-54.2c0-25.8,11.6-38.7,34.9-38.7h38.7c23.2,0,34.9,12.9,34.9,38.7v54.2c0,25.8-11.6,38.7-34.9,38.7Z"/>
      <path class="cls-2" d="M1549.6,57.4l24.5,24.5-24.5,24.5-24.5-24.5,24.5-24.5ZM1530.2,134.9h38.7v131.7h-38.7v-131.7Z"/>
      <polygon class="cls-2" points="1455.3 80.7 1455.3 61.3 1509.5 61.3 1509.5 266.6 1470.8 266.6 1470.8 80.7 1455.3 80.7"/>
      <path class="cls-2" d="M1411.4,227.8v-54.2c0-12.9-5.2-19.4-15.5-19.4s-15.5,6.5-15.5,19.4v54.2c0,12.9,5.2,19.4,15.5,19.4s15.5-6.5,15.5-19.4ZM1415.3,266.6h-38.7c-23.2,0-34.9-12.9-34.9-38.7v-54.2c0-25.8,11.6-38.7,34.9-38.7h38.7c23.2,0,34.9,12.9,34.9,38.7v54.2c0,25.8-11.6,38.7-34.9,38.7Z"/>
      <path class="cls-2" d="M1241.1,266.6v-112.3h-12.9v-19.4h12.9v-34.9c0-25.8,11.6-38.7,34.9-38.7h58.1v19.4h-38.7c-10.3,0-15.5,6.5-15.5,19.4v34.9h54.2v19.4h-54.2v112.3h-38.7Z"/>
      <path class="cls-2" d="M1119.7,76.8h38.7v58.1h54.2v19.4h-54.2v73.6c0,12.9,5.2,19.4,15.5,19.4h38.7v19.4h-58.1c-23.2,0-34.9-12.9-34.9-38.7v-73.6h-12.9v-19.4h12.9v-58.1Z"/>
      <path class="cls-2" d="M1091.3,134.9v19.4h-31c-15.5,0-23.2,6.5-23.2,19.4v92.9h-38.7v-92.9c0-25.8,11.6-38.7,34.9-38.7h58.1Z"/>
      <path class="cls-2" d="M939,227.8v-54.2c0-12.9-5.2-19.4-15.5-19.4s-15.5,6.5-15.5,19.4v54.2c0,12.9,5.2,19.4,15.5,19.4s15.5-6.5,15.5-19.4ZM942.9,266.6h-38.7c-23.2,0-34.9-12.9-34.9-38.7v-54.2c0-25.8,11.6-38.7,34.9-38.7h38.7c23.2,0,34.9,12.9,34.9,38.7v54.2c0,25.8-11.6,38.7-34.9,38.7Z"/>
      <path class="cls-2" d="M807.4,150.4c10.3,0,15.5-6.5,15.5-19.4v-34.9c0-12.9-5.2-19.4-15.5-19.4h-31v73.6h31ZM826.7,57.4c23.2,0,34.9,12.9,34.9,38.7v34.9c0,25.8-11.6,38.7-34.9,38.7h-50.3v96.8h-38.7V57.4h89.1Z"/>
      <path class="cls-2" d="M662.8,200.7c-10.3,0-15.5,6.5-15.5,19.4v7.7c0,12.9,5.2,19.4,15.5,19.4h15.5v-46.5h-15.5ZM643.4,266.6c-23.2,0-34.9-12.9-34.9-38.7v-7.7c0-25.8,11.6-38.7,34.9-38.7h34.9v-7.7c0-12.9-7.7-19.4-23.2-19.4h-41.3v-19.4h68.4c23.2,0,34.9,12.9,34.9,38.7v92.9h-73.6Z"/>
      <path class="cls-2" d="M598.3,134.9v19.4h-31c-15.5,0-23.2,6.5-23.2,19.4v92.9h-38.7v-92.9c0-25.8,11.6-38.7,34.9-38.7h58.1Z"/>
      <path class="cls-2" d="M396.9,76.8h38.7v58.1h54.2v19.4h-54.2v73.6c0,12.9,5.2,19.4,15.5,19.4h38.7v19.4h-58.1c-23.2,0-34.9-12.9-34.9-38.7v-73.6h-15.5v-19.4h15.5v-58.1Z"/>
    </g>
  </g>
</svg>