<svg viewBox="0 0 1826 256" fill="none" xmlns="http://www.w3.org/2000/svg">
<path d="M226.602 171.775L199.334 178.607C188.005 194.534 171.696 206.237 152.98 211.869C134.264 217.501 114.205 216.742 95.9676 209.712L110.642 194.588C128.048 199.024 146.498 196.499 162.072 187.549C177.646 178.6 189.118 163.93 194.049 146.658L231.409 158.83C230.078 163.237 228.472 167.555 226.602 171.761M255.051 136.116C255.229 133.305 255.322 130.494 255.332 127.683C255.329 119.263 254.501 110.865 252.858 102.607L234.895 112.587C235.606 117.606 235.963 122.669 235.963 127.739C235.963 130.03 235.879 132.293 235.738 134.542L196.635 131.112C196.635 129.974 196.719 128.821 196.719 127.668C196.729 112.642 191.811 98.0273 182.72 86.0634L180.949 87.469C185.291 93.2305 188.671 99.6576 190.956 106.5L188.975 107.555C191.114 114.064 192.205 120.873 192.207 127.725C192.207 128.751 192.207 129.777 192.123 130.789L159.949 127.907C159.924 130.356 159.622 132.794 159.05 135.174L189.748 145.266C185.906 158.789 177.762 170.692 166.549 179.17C155.336 187.649 141.665 192.243 127.607 192.255C123.105 192.26 118.615 191.789 114.212 190.849L133.567 170.904L87.8715 165.436L84.4419 122.201L46.1821 160.756C38.8996 142.806 37.7459 122.954 42.9001 104.282C48.0542 85.6093 59.228 69.1604 74.6872 57.4881L77.2172 47.649C92.3032 38.0846 109.801 33.0142 127.663 33.031C129.884 33.031 132.077 33.1154 134.255 33.27L140.96 44.5146C151.045 46.1228 160.75 49.5672 169.592 54.6769L173.359 51.1208C164.138 45.5792 153.982 41.7685 143.392 39.8762L136.617 28.477C133.618 28.2333 130.634 28.1115 127.663 28.1115C110.606 28.0669 93.8265 32.4241 78.9461 40.7617L81.7572 29.5171C96.1066 22.7958 111.762 19.3212 127.607 19.3407C130.938 19.3407 134.227 19.5094 137.446 19.8046L147.426 1.53208C140.887 0.519031 134.28 0.0068485 127.663 0C105.038 0.00838134 82.8204 6.02746 63.2847 17.4414C43.7491 28.8553 27.5963 45.2543 16.4793 64.9604C5.36224 84.6665 -0.320017 106.972 0.0139137 129.596C0.347844 152.219 6.68597 174.347 18.3798 193.717L5.12522 251.205L63.794 238.231C80.443 247.841 99.0466 253.569 118.218 254.988C137.389 256.407 156.633 253.48 174.515 246.426C192.398 239.371 208.457 228.372 221.496 214.246C234.535 200.121 244.218 183.235 249.822 164.846L258.804 167.784C261.857 157.726 263.744 147.35 264.426 136.861L255.023 136.06L255.051 136.116Z" fill="white"/>
<path d="M868.852 150.27H745.653V83.702H824.787L868.852 118.841V150.312V150.27ZM692.944 202.937H620.697L588.622 171.916V163.187H692.944V202.937ZM732.694 70.8129V150.298H705.903V123.452H462.43V96.1273H449.512V202.951H305.511V136.341H423.242V123.452H305.511V96.1273H292.594V215.84H462.43V174.854L502.474 136.341H692.944V150.242H575.747V215.812H705.903V163.187H732.736V215.84H745.653V163.187H881.755V70.7848L732.694 70.8129Z" fill="white"/>
<path d="M972.372 13.6621H929.334V248.14H972.372V13.6621Z" fill="white"/>
<path d="M1005.81 29.9528V20.9009H1042.93V13.6621H1061.02V20.9009H1098.13V29.9528H1061.02V35.3784H1094.5V73.3291H1072.01L1098.1 93.2322V111.378L1060.99 83.1823V111.378H1042.93V83.1823L1005.83 111.378V93.2884L1031.93 73.3854H1009.44V35.4346H1042.93V29.9528H1005.81ZM1027.47 64.3334H1042.93V58.9079H1027.47V64.3334ZM1076.34 64.3334V58.9079H1061.01V64.3334H1076.34ZM1027.47 44.4303V49.8559H1042.93V44.4303H1027.47ZM1076.34 44.4303H1061.01V49.8559H1076.4L1076.34 44.4303Z" fill="white"/>
<path d="M1110.18 31.752V22.7141H1145.54V13.6621H1163.63V22.7141H1198.92V31.752H1110.18ZM1115.6 73.3854V35.4346H1193.43V73.3854H1163.56V95.1016C1163.56 105.953 1158.73 111.378 1149.08 111.378H1137.32V102.34C1142.75 102.34 1145.47 99.9275 1145.47 95.1016V73.3854H1115.6ZM1133.7 64.3334H1175.32V44.4303H1133.7V64.3334ZM1108.4 111.378L1121.05 76.9977H1139.14L1126.49 111.378H1108.4ZM1200.71 111.378H1182.56L1169.91 76.9977H1187.99L1200.64 111.378H1200.71Z" fill="white"/>
<path d="M1416.01 42.6171V33.5652H1450.25L1459.45 13.6621H1479.35L1470.23 33.5652H1508.38V42.6171H1472.18L1510.13 111.378H1489.33L1459.31 57.0947L1434.13 111.378H1414.22L1446.04 42.6171H1416.01Z" fill="white"/>
<path d="M1520.38 53.4121V29.9529H1609.06V53.4121H1590.95V50.7555L1578.3 69.759H1610.87V78.811H1576.49V93.2885C1576.49 105.348 1571.66 111.378 1562.01 111.378H1549.36V102.34C1555.39 102.34 1558.4 99.3231 1558.4 93.2885V78.811H1518.59V69.759H1558.4L1566.83 57.1087H1531.23V53.4121H1520.38ZM1525.8 28.1115L1520.38 13.634H1536.65L1542.09 28.1115H1525.8ZM1558.37 28.1115L1552.95 13.634H1569.24L1574.66 28.1115H1558.37ZM1603.62 28.1115H1587.34L1592.77 13.634H1609.06L1603.62 28.1115ZM1590.97 38.9627H1538.48V48.0146H1590.97V38.9627Z" fill="white"/>
<path d="M1036.89 239.974H1007.93V230.922H1024.22C1031.46 230.922 1035.08 227.905 1035.08 221.871V182.064H1004.31V173.012H1069.46V182.064H1053.18V221.871C1053.18 233.949 1047.75 239.984 1036.89 239.974ZM1009.75 154.923V145.871H1064.02V154.923H1009.75ZM1070.82 166.167L1063.58 158.324L1070.82 150.34L1078.06 158.324L1070.82 166.167ZM1085.59 166.167L1078.35 158.324L1085.59 150.34L1092.83 158.324L1085.59 166.167Z" fill="white"/>
<path d="M1145.61 239.975H1103.99V230.923H1132.1C1139.95 230.923 1143.87 227.905 1143.87 221.871V160.348H1161.96V221.871C1161.96 233.949 1156.53 239.984 1145.67 239.975H1145.61ZM1100.38 154.923V145.871H1131.13V154.923H1100.38ZM1100.38 180.223V171.199H1131.13V180.251L1100.38 180.223ZM1151.16 156.581L1143.92 148.738L1151.16 140.74L1158.4 148.738L1151.16 156.581ZM1165.95 156.581L1158.71 148.738L1165.95 140.74L1173.19 148.738L1165.95 156.581Z" fill="white"/>
<path d="M1194.93 239.975V230.923H1203.98C1211.23 230.923 1214.84 227.306 1214.83 220.071V183.878H1194.93C1194.93 194.729 1188.9 200.154 1176.83 200.154H1167.79V191.159H1169.59C1174.42 191.159 1176.83 188.741 1176.83 183.92V142.244H1194.93V151.296H1232.88V220.071C1232.88 233.34 1228.06 239.975 1218.41 239.975H1194.93ZM1214.83 160.348H1194.93V174.826H1214.83V160.348Z" fill="white"/>
<path d="M1240.18 239.975L1247.42 149.483H1265.51L1258.27 239.975H1240.18ZM1269.13 239.975V142.244H1287.22V230.923H1289.04C1293.86 230.923 1296.27 227.915 1296.27 221.871V201.968H1314.38V221.871C1314.38 233.949 1308.95 239.984 1298.09 239.975H1269.13Z" fill="white"/>
<path d="M1323.12 167.587V153.109L1349.35 142.244L1375.59 153.109V167.587L1358.4 160.559V167.587H1373.78V201.321H1342.85V203.809H1373.78V240.003H1332.17V232.764H1323.12L1326.73 167.615H1340.31V160.587L1323.12 167.615V167.587ZM1377.46 216.459V151.296H1393.75V216.459H1377.46ZM1388.33 239.989V230.937H1390.11C1394.93 230.937 1397.35 228.533 1397.35 223.698V144.057H1415.41V223.684C1415.41 234.554 1409.99 239.984 1399.13 239.975L1388.33 239.989ZM1340.68 160.362H1358.16L1349.35 156.722L1340.61 160.348L1340.68 160.362ZM1344.44 176.653L1344.13 180.265H1355.74V176.653H1344.44ZM1343.68 188.713L1343.53 192.339H1355.74V188.713H1343.68ZM1350.32 230.88H1355.74V212.833H1350.32V230.88Z" fill="white"/>
<path d="M1452.81 239.975H1434.72V190.653L1425.67 209.206V185.677L1445.57 142.244H1458.22L1452.8 153.405L1452.81 239.975ZM1485.39 239.975H1467.29V182.064L1454.64 207.365V173.012L1469.12 142.244H1487.21L1481.78 153.109H1518.02V162.161H1485.45V176.639H1516.2V185.677H1485.45V200.154H1516.2V209.206H1485.45V239.975H1485.39Z" fill="white"/>
<path d="M1528.22 239.975V144.057H1620.51V239.975H1602.42V153.109H1546.31V239.975H1528.22ZM1549.94 167.587V158.535H1598.8V167.587H1549.94ZM1551.75 221.871V173.013H1596.98V221.871H1551.75ZM1568.03 212.833H1580.68V182.064H1568.03V212.833Z" fill="white"/>
<path d="M1672.39 153.11V144.058H1719.45L1708.59 178.508H1724.88V187.56H1706.77V221.941C1706.77 234.02 1701.95 240.054 1692.3 240.045H1681.44V230.993C1686.27 230.993 1688.68 227.985 1688.68 221.941V187.49H1670.58V178.508H1690.48L1698.48 153.208L1672.39 153.11ZM1634.44 239.975V230.923H1641.68C1648.91 230.923 1652.54 227.306 1652.55 220.072V216.459L1630.83 211.034L1632.23 162.176H1629.07V153.124H1632.39L1632.68 142.258H1648.98L1648.68 153.124H1668.88V211.483L1674.32 212.889V221.927L1668.88 220.521C1668.78 233.5 1663.95 239.984 1654.4 239.975H1634.44ZM1652.55 162.161H1648.47L1647.26 206.044L1652.55 207.449V162.161Z" fill="white"/>
<path d="M1735.12 200.168V191.159H1823.8V200.211H1774.94L1760.89 230.965H1799.19L1791.21 205.664H1811.11L1821.96 240.045H1736.91L1755 200.239L1735.12 200.168ZM1744.17 183.878V174.826H1814.75V183.878H1744.17ZM1733.31 176.639V162.161L1779.45 142.244L1825.6 162.161V176.639L1779.45 156.722L1733.31 176.639Z" fill="white"/>
<path d="M1314.83 53.2145V29.66H1403.61V53.2145H1385.49V50.4967L1372.81 69.5215H1405.42V78.5809H1371V93.076C1371 105.155 1366.17 111.195 1356.5 111.195H1343.82V102.135C1349.86 102.135 1352.88 99.1156 1352.88 93.076V78.5809H1313.02V69.5215H1352.88L1361.33 56.8383H1325.7V53.2145H1314.83ZM1320.26 27.8481L1314.83 13.353H1331.14L1336.57 27.8481H1320.26ZM1352.88 27.8481L1347.44 13.353H1363.75L1369.19 27.8481H1352.88ZM1398.18 27.8481H1381.87L1387.3 13.353H1403.61L1398.18 27.8481ZM1385.49 38.7194H1332.95V47.7789H1385.49V38.7194Z" fill="white"/>
<path d="M1220.31 111.195V74.9571L1208.53 102.135V76.769L1220.31 49.5907H1208.53V40.5313H1220.31V26.4892L1208.53 27.8481V18.7887L1250.21 13.353V22.4125L1238.43 23.9224V40.5313H1250.21V49.5907H1238.43L1250.21 58.6502V71.3334L1238.43 62.2739V111.195H1220.31ZM1281.01 13.353H1299.13V68.0116L1304.56 67.7096V76.769L1299.13 77.222V111.195H1281.01V78.5809L1250.21 80.3928V71.3334L1281.01 69.2195V13.353ZM1252.02 24.2243V13.353L1279.2 26.0362V36.9075L1252.02 24.2243ZM1252.02 49.5907V38.7194L1279.2 51.4026V62.2739L1252.02 49.5907Z" fill="white"/>
</svg>
