<?xml version="1.0" encoding="UTF-8"?>
<svg xmlns="http://www.w3.org/2000/svg" version="1.1" viewBox="0 0 322.7 324">
  <defs>
    <style>
      .cls-1 {
        fill: #005bac;
        fill-rule: evenodd;
      }
    </style>
  </defs>
  <!-- Generator: Adobe Illustrator 28.7.1, SVG Export Plug-In . SVG Version: 1.2.0 Build 142)  -->
  <g>
    <g id="_レイヤー_1" data-name="レイヤー_1">
      <path class="cls-1" d="M5.9,44.3C1.6,54,1.6,66.5,1.6,91.4s0,37.4,4.3,47.2c5,11.3,14,20.4,25.3,25.4,9.7,4.3,22.1,4.3,47,4.3s37.3,0,47-4.3c11.3-5,20.3-14.1,25.3-25.4,4.3-9.7,4.3-22.2,4.3-47.2s0-37.4-4.3-47.2c-5-11.3-14-20.4-25.3-25.4-9.7-4.3-22.1-4.3-47-4.3s-37.3,0-47,4.3c-11.3,5-20.3,14.1-25.3,25.4ZM51.3,137.8c6.1.4,14.1.5,27,.5s20.9,0,27-.5c5.8-.4,7.4-1.1,7.8-1.3,4.5-2,8.1-5.6,10.1-10.2.2-.4.8-2,1.3-7.8.4-6.1.5-14.2.5-27.1s0-21-.5-27.1c-.4-5.8-1.1-7.5-1.3-7.8-2-4.5-5.6-8.2-10.1-10.2-.4-.2-2-.8-7.8-1.3-6.1-.4-14.1-.5-27-.5s-20.9,0-27,.5c-5.8.4-7.4,1.1-7.8,1.3-4.5,2-8.1,5.6-10.1,10.2-.2.4-.8,2-1.3,7.8-.4,6.1-.5,14.2-.5,27.1s0,21,.5,27.1c.4,5.8,1.1,7.5,1.3,7.8,2,4.5,5.6,8.2,10.1,10.2.4.2,2,.8,7.8,1.3Z"/>
      <path class="cls-1" d="M159.2,198.2c-4.3,9.7-4.3,22.2-4.3,47.2s0,37.4,4.3,47.2c5,11.3,14,20.4,25.3,25.4,9.7,4.3,22.1,4.3,47,4.3s37.3,0,47-4.3c11.3-5,20.3-14.1,25.3-25.4,4.3-9.7,4.3-22.2,4.3-47.2s0-37.4-4.3-47.2c-5-11.3-14-20.4-25.3-25.4-9.7-4.3-22.1-4.3-47-4.3s-37.3,0-47,4.3c-11.3,5-20.3,14.1-25.3,25.4ZM204.5,291.7c6.1.4,14.1.5,27,.5s20.9,0,27-.5c5.8-.4,7.4-1.1,7.8-1.3,4.5-2,8.1-5.6,10.1-10.2.2-.4.8-2,1.3-7.8.4-6.1.5-14.2.5-27.1s0-21-.5-27.1c-.4-5.8-1.1-7.5-1.3-7.8-2-4.5-5.6-8.2-10.1-10.2-.4-.2-2-.8-7.8-1.3-6.1-.4-14.1-.5-27-.5s-20.9,0-27,.5c-5.8.4-7.4,1.1-7.8,1.3-4.5,2-8.1,5.6-10.1,10.2-.2.4-.8,2-1.3,7.8-.4,6.1-.5,14.2-.5,27.1s0,21,.5,27.1c.4,5.8,1.1,7.5,1.3,7.8,2,4.5,5.6,8.2,10.1,10.2.4.2,2,.8,7.8,1.3Z"/>
      <path class="cls-1" d="M156.8,93.2c3.1,9.6,11.3,17.8,27.8,34.4l11.1,11.1c16.5,16.6,24.7,24.8,34.2,28,8.4,2.7,17.4,2.7,25.7,0,9.5-3.1,17.8-11.4,34.2-28l3-3c16.5-16.6,24.7-24.8,27.8-34.4,2.7-8.4,2.7-17.5,0-25.9-3.1-9.6-11.3-17.8-27.8-34.4l-11.1-11.1c-16.5-16.6-24.7-24.8-34.2-28-8.4-2.7-17.4-2.7-25.7,0-9.5,3.1-17.8,11.4-34.2,28l-3,3c-16.5,16.6-24.7,24.8-27.8,34.4-2.7,8.4-2.7,17.5,0,25.9ZM185.2,76.8s0,0,0,0c0,0,0,0,0,0ZM185.2,83.8s0,0,0,0c0,0,0,0,0,0ZM239.3,138.1s0,0,0,0c0,0,0,0,0,0ZM246.2,138.1s0,0,0,0c0,0,0,0,0,0ZM292.2,91.9s0,0,0,0c0,0,0,0,0,0ZM292.2,84.9s0,0,0,0c0,0,0,0,0,0ZM238.1,30.6s0,0,0,0c0,0,0,0,0,0ZM231.2,30.6s0,0,0,0c0,0,0,0,0,0ZM208.8,51.3l-3,3c-8.6,8.6-13.7,13.8-17.3,18-2.4,2.8-3.1,4.1-3.2,4.4-.7,2.3-.7,4.8,0,7.1.1.3.9,1.6,3.2,4.4,3.5,4.2,8.7,9.4,17.3,18l11.1,11.1c8.6,8.6,13.8,13.8,17.9,17.4,2.8,2.4,4.1,3.1,4.4,3.3,2.3.7,4.8.7,7.1,0,.3-.1,1.6-.9,4.4-3.3,4.2-3.5,9.3-8.7,17.9-17.4l3-3c8.6-8.6,13.7-13.8,17.3-18,2.4-2.8,3.1-4.1,3.2-4.4.7-2.3.7-4.8,0-7.1-.1-.3-.9-1.6-3.2-4.4-3.5-4.2-8.7-9.4-17.3-18l-11.1-11.1c-8.6-8.6-13.8-13.8-17.9-17.4-2.8-2.4-4.1-3.1-4.4-3.3-2.3-.7-4.8-.7-7.1,0-.3.1-1.6.9-4.4,3.3-4.2,3.5-9.3,8.7-17.9,17.4Z"/>
      <path class="cls-1" d="M77.4,168.4C34.7,168.4,0,203.2,0,246.2s34.7,77.8,77.4,77.8,77.4-34.8,77.4-77.8-34.7-77.8-77.4-77.8ZM30,246.2c0,26.3,21.3,47.7,47.5,47.7s47.5-21.4,47.5-47.7-21.3-47.7-47.5-47.7-47.5,21.4-47.5,47.7Z"/>
    </g>
  </g>
</svg>