<svg xmlns="http://www.w3.org/2000/svg" viewBox="0 0 1825.6 255.34"><defs><style>.cls-1{fill:#005bac;}</style></defs><g><path class="cls-1" d="M270.07 587.83l-27.26 6.84a88 88 0 01-103.36 31.09l14.67-15.12a69 69 0 0083.4-47.93l37.35 12.19a108.71 108.71 0 01-4.8 12.93m28.45-35.64c.18-2.8.29-5.62.29-8.46a128.5 128.5 0 00-2.48-25.14l-18 10a109.6 109.6 0 011.06 15.15c0 2.28-.08 4.55-.22 6.8l-39.11-3.36c.06-1.14.09-2.29.09-3.44a68.74 68.74 0 00-13.95-41.61l-1.78 1.35a66.73 66.73 0 0110 19l-2 1.06a64.65 64.65 0 013.23 20.17c0 1 0 2-.08 3L203.42 544a32.29 32.29 0 01-.89 7.27l30.74 10a64.53 64.53 0 01-75.52 45.58l19.35-20-45.7-5.46-3.48-43.22-38.26 38.65a88 88 0 0128.51-103.28l2.51-9.88a94.24 94.24 0 0150.46-14.57c2.21 0 4.41.08 6.58.23h.05l6.71 11.26a83.78 83.78 0 0128.63 10.15l3.77-3.55a88.43 88.43 0 00-30-11.24l-6.8-11.42c-3-.26-5.94-.41-9-.41a99.05 99.05 0 00-48.72 12.74l2.86-11.26a107.86 107.86 0 0145.86-10.17c3.32 0 6.61.16 9.86.45l10-18.28A127.74 127.74 0 0043.47 543.73a127.07 127.07 0 0018.39 66L48.6 667.26l58.66-13a127.75 127.75 0 00186-73.38l9 2.93a137.25 137.25 0 005.67-30.81l-9.41-.8zM912.31 566.33h-123.2v-66.57h79.15l44 35.1v31.47zM736.46 619H664.2l-32.07-31v-8.73h104.33zm39.74-132.15v79.48h-26.83V539.5H506v-27.32h-13V619H349v-66.58h117.71V539.5H349v-27.32h-12.94V631.9H506v-41l40-38.49h190.46v13.91H619.22v65.58h130.15v-52.66h26.83v52.66h12.91v-52.66h136.12v-92.39z" transform="translate(-43.47 -416.06)"/><path class="cls-1" d="M929.33 13.66h43.03v234.47h-43.03z"/><path class="cls-1" d="M1049.28 446v-9h37.1v-7.24h18.1V437h37.1v9h-37.1v5.43H1138v38h-22.47l26.09 19.9v18.1l-37.1-28.2v28.2h-18.1v-28.2l-37.1 28.2v-18.1l26.09-19.9h-22.51v-38h33.48V446zm21.72 34.39h15.38V475H1071zm48.86 0V475h-15.38v5.43zM1071 460.48v5.43h15.38v-5.43zm48.86 0h-15.38v5.43h15.38zM1153.64 447.81v-9h35.29v-9H1207v9h35.28v9zm5.43 41.63v-38h77.81v38H1207v21.71q0 16.29-14.48 16.29h-11.77v-9.05q8.15 0 8.15-7.24v-21.71zm18.1-9.05h41.62v-19.91h-41.62zm-25.34 47.05l12.67-34.38h18.09l-12.66 34.38zm92.29 0H1226l-12.67-34.38h18.1l12.66 34.38zM1258 440.58v-9.05h85v9.05h-33.48v77.81h37.1v9.05h-92.29v-9.05h37.1v-77.81zM1356.93 527.44V513l31.07-16.32h-31.06v-9.05H1394v-2.72h-31.67v-9.05H1394v-2.71h-35.29v-9h14.48l-3.62-10.86h-10.86v-9h7.29l-3.62-14.48h17.19l3.62 14.48h1.81v-14.57h17.19v14.48h1.81v-14.48h17.19v14.48h1.81l3.62-14.48h17.19l-3.62 14.48h7.24v9h-10.86l-3.61 10.86h14.47v9h-35.29v2.71h31.67v9.05h-31.67v2.72h37.1v9.05h-31.06l31.04 16.41v14.48l-37.1-19.48v19.45H1394V508l-37.1 19.45zm57-63.34l3.62-10.86h-29l3.62 10.86zM1459.48 458.67v-9.05h34.23l9.2-19.9h19.9l-9.19 19.9h38.15v9.05h-36.19l38 68.77h-20.81l-30-54.29-25.19 54.29h-19.9l31.82-68.77zM1563.83 469.53V446h88.68v23.53h-18.1v-2.71l-12.67 19h32.58v9.05h-34.39v14.47q0 18.1-14.47 18.1h-12.67v-9.05q9 0 9-9.05v-14.47H1562v-9.05h39.82l8.44-12.67h-35.59v-3.62zm5.43-25.33l-5.43-14.48h16.29l5.43 14.48zm32.58 0l-5.43-14.48h16.29l5.42 14.48zm45.24 0h-16.29l5.43-14.48h16.29l-5.43 14.48zm-12.67 10.85h-52.48v9.05h52.48zM1080.35 656h-29v-9h16.29q10.86 0 10.86-9.05v-39.83h-30.77v-9h65.15v9h-16.28v39.81q.04 18.07-16.25 18.07zm-27.15-85v-9.05h54.29V571zm61.08 11.31l-7.24-7.84 7.24-8 7.24 8zm14.78 0l-7.24-7.84 7.24-8 7.24 8zM1189.08 656h-41.62v-9h28q11.76 0 11.76-9.05V576.4h18.1v61.53q0 18.09-16.29 18.1zm-45.24-85v-9.05h30.76V571zm0 25.34v-9h30.76v9zm50.82-23.68l-7.24-7.84 7.24-8 7.24 8zm14.78 0l-7.24-7.84 7.24-8 7.24 8zM1238.39 656v-9h9q10.86 0 10.86-10.86v-36.21h-19.91q0 16.27-18.09 16.28h-9v-9h1.81q7.23 0 7.24-7.24V558.3h18.09v9.05h38v68.77q0 19.9-14.48 19.91zm19.91-79.63h-19.91v14.48h19.91zM1283.64 656l7.23-90.49H1309l-7.27 90.49zm28.95 0v-97.7h18.1V647h1.81q7.23 0 7.24-9.05V618h18.09v19.91q0 18.09-16.28 18.1zM1366.58 583.64v-14.48l26.24-10.85 26.24 10.85v14.48l-17.19-7.09v7.09h15.38v33.78h-30.91v2.41h30.91V656h-41.62v-7.24h-9.05l3.62-65.15h13.57v-7.09l-17.19 7.09zm54.29 48.86v-65.15h16.29v65.15zm10.86 23.5v-9h1.81q7.23 0 7.24-7.24v-79.64h18.09v79.62q0 16.29-16.28 16.29zm-47.66-79.63h17.5l-8.75-3.62-8.75 3.62zm3.77 16.29l-.3 3.62h11.61v-3.62zm-.75 12.06l-.15 3.62h12.21v-3.62zm6.64 42.23h5.42v-18.1h-5.42zM1496.27 656h-18.09v-49.29l-9 18.55v-23.52L1489 558.3h12.67l-5.43 11.16zm32.58 0h-18.1v-57.88l-12.67 25.33v-34.38l14.48-30.77h18.1l-5.43 10.86h36.19v9.05h-32.57v14.48h30.76v9h-30.76v14.47h30.76v9h-30.76V656zM1571.68 656v-95.89H1664V656h-18.1v-86.84h-56.1V656zm21.71-72.39v-9h48.87v9zm1.81 54.29v-48.83h45.25v48.86zm16.29-9h12.67v-30.78h-12.67zM1715.85 569.16v-9h47.05L1752 594.5h16.29v9h-18.1v34.38q0 18.11-14.47 18.1h-10.82v-9q7.23 0 7.24-9.05v-34.38H1714v-9h20l8-25.34zm-38 86.87v-9h7.23q10.86 0 10.86-10.86v-3.67l-21.71-5.43 1.35-48.86h-3.16v-9.05h3.31l.31-10.85h16.28l-.3 10.85h20.21v58.37l5.43 1.35v9l-5.43-1.36q-.15 19.45-14.48 19.46zm18.09-77.82h-4.07l-1.21 43.89 5.28 1.35zM1778.58 616.22v-9.05h88.68v9.05h-48.86l-14 30.76h38.31l-8-25.33h19.91l10.83 34.35h-85.06l18.1-39.81zm9.05-16.29v-9h70.58v9zm-10.86-7.24v-14.48l46.15-19.9 46.15 19.9v14.48l-46.15-19.91z" transform="translate(-43.47 -416.06)"/></g></svg>
